<?xml version="1.0" encoding="utf-8"?>
<!-- Svg Vector Icons : http://www.onlinewebfonts.com/icon -->
<!DOCTYPE svg PUBLIC "-//W3C//DTD SVG 1.1//EN" "http://www.w3.org/Graphics/SVG/1.1/DTD/svg11.dtd">
<svg version="1.1" xmlns="http://www.w3.org/2000/svg" xmlns:xlink="http://www.w3.org/1999/xlink" x="0px" y="0px" viewBox="0 0 1000 1000" enable-background="new 0 0 1000 1000" xml:space="preserve">
<metadata> Svg Vector Icons : http://www.onlinewebfonts.com/icon </metadata>
<g><g transform="translate(0.000000,512.000000) scale(0.100000,-0.100000)"><path d="M3196.3,5047.2c-421.8-102.6-721.8-487.7-721.8-925v-96.8l-120,102.6c-238,197.4-507,278.7-776,234.2c-538-91-890.2-621.2-758.6-1135.9c44.5-166.4,98.7-270.9,216.7-410.2l104.5-121.9l-112.2-1.9c-352.2-1.9-683.1-210.9-836-526.3C-103,1558.2,344,836.4,1017.4,836.4c67.7,0,121.9-5.8,121.9-13.5c0-5.8-44.5-58.1-96.8-114.2C696.2,343,717.5-243.4,1089-591.7c193.5-180,379.3-253.5,642.5-255.4c240,0,456.7,89,656,272.8l87.1,81.3v-116.1c0-419.9,315.4-820.5,717.9-913.4c348.3-81.3,733.4,58.1,950.1,340.6c120,158.7,172.2,303.8,183.8,512.8l11.6,166.4l125.8-106.4c214.8-183.8,416-251.6,690.8-232.2c276.7,17.4,518.6,147.1,677.3,363.8c131.6,180,170.3,299.9,172.2,534.1c1.9,110.3,5.8,199.3,11.6,199.3c25.1,0,472.2-398.6,628.9-563.1c628.9-652.1,1134-1474.6,1424.2-2316.3l34.8-102.5l-71.6,60c-650.2,541.8-1352.7,812.7-2109.3,812.7c-507,0-1064.3-108.4-1480.4-288.3l-92.9-40.6l114.2-139.4c241.9-296,611.5-617.3,956-832.1c793.4-493.5,1739.6-599.9,2747.9-307.7c152.9,44.5,129.7,75.4,197.4-267.1c42.6-210.9,102.6-638.6,137.4-992.7l11.6-110.3l178,11.6c98.7,5.8,181.9,13.6,185.8,19.4c13.5,11.6-54.2,634.7-92.9,857.3c-21.3,112.2-48.4,265.1-61.9,340.6l-25.2,137.4l154.8,195.4c470.3,599.9,841.8,1412.6,983.1,2153.8c199.3,1052.7-71.6,2310.5-717.9,3330.3c-58,92.9-114.2,170.3-121.9,170.3c-23.2,0-278.7-329-392.8-503.1c-433.5-669.5-702.4-1366.2-797.3-2078.3c-25.1-191.6-30.9-336.7-25.1-613.4l7.7-363.8l-158.7,236.1C7204-309.2,6619.6,290.7,6011.9,726.1l-147.1,104.5l108.4,25.2c340.6,73.5,625,340.6,710.2,667.6c152.9,594.1-301.9,1170.7-923.1,1170.7h-96.7l96.7,108.4c174.2,193.5,255.4,402.5,255.4,646.3c-2,454.8-346.4,849.5-803.1,915.3c-269,38.7-555.4-52.2-752.8-238c-56.1-52.3-108.4-96.8-114.2-96.8c-7.7,0-13.5,54.2-13.5,121.9C4330.3,4733.7,3761.4,5182.7,3196.3,5047.2z M3600.8,4656.3c123.8-40.6,236.1-145.1,299.9-274.8c54.2-108.4,54.2-114.2,60-534.1c5.8-402.5,5.8-421.9-29-410.2c-238,91-681.2,92.9-1037.2,1.9l-56.1-15.5l7.7,423.8c7.7,450.9,11.6,462.5,116.1,621.2c54.2,81.3,147.1,150.9,257.4,193.5C3302.8,4695,3498.2,4693.1,3600.8,4656.3z M1973.4,3934.5c83.2-42.6,657.9-590.2,636.6-607.6c-5.8-3.9-85.1-56.1-176.1-116.1c-185.8-121.9-375.4-311.6-497.3-497.3c-44.5-69.7-85.2-133.5-89-145.1c-3.9-9.7-135.5,106.4-290.3,261.2c-325.1,321.2-381.2,408.3-383.2,594.1c-3.9,255.4,129.7,452.8,365.7,539.9C1650.2,4004.2,1863,3990.6,1973.4,3934.5z M5359.8,3919c259.3-145.1,356.1-458.6,220.6-719.9c-42.6-85.1-578.6-640.5-597.9-621.2c-3.9,5.8-52.3,75.5-106.4,158.7c-121.9,180-365.7,414.1-547.6,522.5l-135.5,79.3l259.3,259.3c352.2,354.1,427.7,398.6,665.7,387C5228.2,3979,5278.5,3965.5,5359.8,3919z M3780.7,3090.8c379.3-102.6,702.4-371.5,882.4-735.3c104.5-216.7,139.3-365.7,139.3-609.6c0-249.6-34.8-392.8-154.8-638.6c-73.5-150.9-116.1-210.9-245.8-338.6c-267.1-263.2-553.4-392.8-911.4-410.2c-418-21.3-779.8,120-1074,421.9c-149,152.9-238,294.1-317.4,507c-56.1,150.9-58.1,174.2-60,449c0,323.2,27.1,445.1,156.7,679.2c187.7,342.5,545.7,611.5,926.9,692.8C3289.2,3145,3612.4,3137.3,3780.7,3090.8z M1731.5,2293.5c-65.8-226.4-77.4-303.8-77.4-547.6c0-180,11.6-301.9,32.9-392.8c17.4-73.5,32.9-137.4,32.9-141.3c0-5.8-189.6-7.7-419.9-3.9c-414.1,5.8-423.8,7.7-520.5,58.1c-185.8,96.8-298,276.7-301.9,476c-3.9,299.9,183.8,520.6,487.7,570.9c27.1,3.9,212.9,9.7,412.2,11.6C1716,2326.4,1741.1,2324.5,1731.5,2293.5z M5998.4,2274.2c377.3-170.3,454.7-650.2,149-925c-143.2-127.7-220.6-145.1-669.5-145.1h-375.4l11.6,44.5c81.3,276.7,87.1,673.4,15.5,926.9c-21.3,71.6-31,135.5-25.2,143.2c5.8,5.8,189.7,7.7,408.3,3.9C5861,2316.8,5921,2311,5998.4,2274.2z M9059.7,1538.9c309.6-654.1,458.6-1279.1,460.5-1923.5c0-745-214.8-1461-663.8-2209.9l-139.3-234.1l-102.6,212.9c-255.4,528.3-406.4,1083.7-454.8,1654.5c-63.8,783.7,162.6,1639,657.9,2471.1c69.7,118,133.5,216.7,141.3,216.7C8964.9,1726.6,9009.4,1641.4,9059.7,1538.9z M1909.5,819c110.3-183.8,323.2-404.4,518.6-536l164.5-112.2L2315.9-106c-317.4-317.3-387-359.9-599.9-359.9c-309.6,0-541.8,234.1-541.8,543.8c0,209,42.6,278.7,356.1,596c150.9,152.9,280.6,278.7,288.3,278.7S1866.9,892.5,1909.5,819z M5584.3,315.9c40.6-81.3,52.2-133.5,52.2-232.2c0-315.4-234.1-549.6-549.6-549.6c-205.1,0-278.7,44.5-594.1,358l-274.8,272.9l118,69.7c176.1,102.6,433.5,356.1,557.3,549.6l106.4,166.4l267-265.1C5456.5,495.8,5547.5,389.4,5584.3,315.9z M3064.8,12.1c240-54.2,681.2-32.9,866.9,42.6c34.8,11.6,36.8-5.8,29-400.6c-5.8-404.4-7.7-416.1-58.1-512.8c-58.1-112.2-176.1-224.5-280.6-270.9c-46.4-21.3-125.8-32.9-218.7-32.9c-172.2-1.9-301.9,54.2-406.4,172.2c-129.7,149-143.2,205.1-150.9,654.1l-7.7,404.4l44.5-13.5C2908,48.8,2991.2,29.5,3064.8,12.1z M6441.5-2279.1c481.8-98.7,954-340.6,1381.7-708.2l154.8-133.5l-87.1-23.2c-313.5-90.9-896-127.7-1226.9-75.4c-358,54.2-698.6,178-1021.7,371.5c-212.9,127.7-654.1,476-632.8,499.2c17.4,15.5,390.9,87.1,563.1,106.4C5804.9-2215.3,6217.1-2232.7,6441.5-2279.1z"/></g></g>
</svg>